<svg width="26" height="26" viewBox="0 0 26 26" fill="none" xmlns="http://www.w3.org/2000/svg">
<circle cx="13" cy="13" r="12.5" stroke="#0D6EFD"/>
<path d="M8.73003 16.8413H9.55563L15.219 11.178L14.3934 10.3524L8.73003 16.0157V16.8413ZM7.57129 18.0001V15.5378L15.219 7.90455C15.3349 7.79833 15.4629 7.71625 15.6031 7.65832C15.7433 7.60038 15.8905 7.57141 16.0446 7.57141C16.1987 7.57141 16.3484 7.60038 16.4936 7.65832C16.6388 7.71625 16.7644 7.80316 16.8702 7.91903L17.6668 8.73015C17.7827 8.83637 17.8673 8.9619 17.9206 9.10674C17.9739 9.25159 18.0003 9.39643 18 9.54127C18 9.69577 17.9735 9.84312 17.9206 9.98333C17.8677 10.1235 17.7831 10.2514 17.6668 10.3669L10.0336 18.0001H7.57129ZM14.7989 10.7724L14.3934 10.3524L15.219 11.178L14.7989 10.7724Z" fill="#0D6EFD"/>
</svg>
